<svg xmlns="http://www.w3.org/2000/svg">
<defs>
<symbol id="icon-phone" viewBox="0 0 1024 1024">
	<title>phone</title>
	<path class="path1" d="M574.925 574.925c-81.050 81.101-174.95 158.618-212.070 121.446-53.146-53.094-85.862-99.379-203.008-5.274s-27.187 156.877 24.32 208.384c59.392 59.341 280.781 3.123 499.661-215.706 218.778-218.829 275.098-440.269 215.654-499.661-51.456-51.507-114.176-141.414-208.333-24.32s-47.872 149.862 5.274 203.008c37.018 37.171-40.448 131.021-121.498 212.122z" />
</symbol>
<symbol id="icon-mail" viewBox="0 0 1024 1024">
	<title>mail</title>
	<path class="path1" d="M81.613 270.643c24.986 13.466 371.149 199.373 384.051 206.285 12.851 6.912 29.542 10.24 46.336 10.24 16.845 0 33.536-3.328 46.387-10.291 12.902-6.912 359.014-192.819 384-206.285 25.037-13.414 48.691-55.552 2.765-55.552h-866.253c-45.926 0-22.323 42.138 2.714 55.603zM952.986 373.043c-28.416 14.848-377.19 197.171-394.598 206.285s-29.542 10.291-46.387 10.291c-16.794 0-28.928-1.178-46.336-10.291s-366.234-191.488-394.598-206.285c-20.019-10.445-19.866 1.792-19.866 11.213s0 375.552 0 375.552c0 21.504 28.621 49.152 50.79 49.152h820.070c22.221 0 50.739-27.648 50.739-49.101 0 0 0-366.131 0-375.552 0-9.472 0.205-21.709-19.814-11.264z" />
</symbol>
<symbol id="icon-location" viewBox="0 0 1024 1024">
	<title>location</title>
	<path class="path1" d="M512 102.4c-141.414 0-256 114.637-256 256 0 244.429 256 563.2 256 563.2s256-318.771 256-563.2c0-141.363-114.586-256-256-256zM512 499.712c-76.339 0-138.24-61.901-138.24-138.24s61.901-138.24 138.24-138.24 138.24 61.901 138.24 138.24-61.901 138.24-138.24 138.24z" />
</symbol>
<symbol id="icon-map" viewBox="0 0 1024 1024">
	<title>map</title>
	<path class="path1" d="M1007.77 257.229l-239.309-149.862c-10.598-6.656-23.859-6.656-34.458 0l-222.003 139.059-222.003-139.008c-10.598-6.656-23.859-6.656-34.458 0l-239.309 149.811c-10.035 6.298-16.23 17.715-16.23 29.952v599.398c0 12.595 6.451 24.269 16.998 30.464s23.398 6.042 33.741-0.461l222.003-139.059 222.003 139.059c10.598 6.656 23.859 6.656 34.509 0l222.003-139.059 222.003 139.059c5.274 3.328 11.264 5.018 17.254 5.018 5.683 0 11.366-1.536 16.486-4.557 10.496-6.195 16.998-17.869 16.998-30.464v-599.398c0-12.237-6.195-23.654-16.23-29.952zM239.258 716.954l-172.288 107.878v-517.837l172.288-107.878v517.837zM478.515 824.832l-172.288-107.878v-517.837l172.288 107.878v517.837zM717.773 716.954l-172.237 107.878v-517.837l172.237-107.878v517.837zM956.979 824.832l-172.237-107.878v-517.837l172.237 107.878v517.837z" />
</symbol>
<symbol id="icon-house" viewBox="0 0 1024 1024">
	<title>house</title>
	<path class="path1" d="M961.024 527.36l-410.829-411.187c-20.992-21.811-55.347-21.811-76.339 0l-410.88 411.187c-21.043 21.76-13.21 39.629 17.408 39.629h85.658v315.802c0 22.784 0.973 41.421 42.189 41.421h199.424v-316.826h208.64v316.826h209.357c31.437 0 32.307-18.586 32.307-41.421v-315.802h85.606c30.566 0 38.451-17.818 17.459-39.629z" />
</symbol>
<symbol id="icon-search" viewBox="0 0 1024 1024">
	<title>search</title>
	<path class="path1" d="M898.304 791.962l-193.485-193.485c29.184-47.974 45.978-104.192 45.978-164.454 0-174.899-151.603-326.502-326.554-326.502-174.899 0-316.723 141.824-316.723 316.723 0 174.95 151.552 326.554 326.502 326.554 58.163 0 112.64-15.77 159.488-43.162l194.509 194.56c19.098 19.046 49.92 19.046 68.915 0l48.282-48.23c18.995-19.046 12.083-43.008-6.912-62.003zM205.005 424.243c0-121.088 98.15-219.29 219.238-219.29 121.139 0 229.069 107.93 229.069 229.069s-98.15 219.29-219.29 219.29-229.018-107.93-229.018-229.069z" />
</symbol>
<symbol id="icon-lock" viewBox="0 0 1024 1024">
	<title>lock</title>
	<path class="path1" d="M809.011 409.702h-92.211v-71.68c0-148.326-68.301-235.52-204.8-235.52-136.448 0-204.8 87.194-204.8 235.52v71.68h-102.4c-28.262 0-51.2 33.126-51.2 61.44v399.36c0 28.16 21.965 58.317 48.742 66.918l61.235 19.814c26.778 8.653 71.731 15.718 99.942 15.718h296.96c28.16 0 73.165-7.066 99.942-15.718l61.235-19.814c26.829-8.602 48.742-38.758 48.742-66.918v-399.36c0-28.314-33.126-61.44-61.389-61.44zM409.6 317.542c0-73.984 40.858-112.64 102.4-112.64 61.594 0 102.4 38.656 102.4 112.64v92.16h-204.8v-92.16z" />
</symbol>
<symbol id="icon-lock-open" viewBox="0 0 1024 1024">
	<title>lock-open</title>
	<path class="path1" d="M808.96 409.6h-92.16v-122.88c0-148.326-68.352-235.52-204.8-235.52-136.499 0-204.8 87.194-204.8 235.52v20.48h102.4v-40.96c0-73.984 40.806-112.64 102.4-112.64 61.542 0 102.4 38.656 102.4 112.64v143.36h-409.6c-28.314 0-51.2 33.126-51.2 61.44v399.36c0 28.16 21.965 58.266 48.742 66.918l61.235 19.814c26.829 8.602 71.782 15.667 99.942 15.667h296.96c28.211 0 73.165-7.066 99.942-15.718l61.235-19.814c26.778-8.602 48.742-38.707 48.742-66.867v-399.36c0-28.314-33.126-61.44-61.44-61.44z" />
</symbol>
<symbol id="icon-checkmark" viewBox="0 0 1024 1024">
	<title>checkmark</title>
	<path class="path1" d="M424.704 870.4c-22.272 0-43.366-10.394-56.883-28.314l-182.989-241.562c-23.808-31.437-17.613-76.186 13.824-99.994 31.488-23.859 76.186-17.613 99.994 13.824l120.371 158.925 302.694-485.939c20.838-33.434 64.87-43.674 98.355-22.835 33.434 20.787 43.674 64.87 22.784 98.304l-357.53 573.952c-12.442 20.019-33.894 32.563-57.395 33.587-1.075 0.051-2.15 0.051-3.226 0.051z" />
</symbol>
<symbol id="icon-cross" viewBox="0 0 1024 1024">
	<title>cross</title>
	<path class="path1" d="M734.669 673.382l-141.21-161.382 141.21-161.382c24.013-24.013 24.013-62.925 0-86.886-24.013-23.962-62.925-23.962-86.886 0l-135.782 155.187-135.731-155.136c-24.013-24.013-62.925-24.013-86.886 0-23.962 24.013-23.962 62.925 0 86.886l141.158 161.331-141.21 161.382c-23.962 24.013-23.962 62.822 0 86.784 24.013 24.013 62.925 24.013 86.886 0l135.782-155.085 135.731 155.085c24.013 24.013 62.925 24.013 86.886 0s24.013-62.771 0.051-86.784z" />
</symbol>
<symbol id="icon-arrow-left" viewBox="0 0 1024 1024">
	<title>arrow-left</title>
	<path class="path1" d="M585.574 231.219c-21.402 20.89-230.502 240.435-230.502 240.435-11.418 11.162-17.101 25.754-17.101 40.346s5.683 29.184 17.101 40.346c0 0 209.101 219.546 230.502 240.384 21.402 20.89 59.904 22.323 82.739 0 22.784-22.272 24.576-53.35-0.051-80.64l-191.846-200.090 191.846-200.090c24.627-27.341 22.835-58.419 0.051-80.691-22.886-22.272-61.389-20.89-82.739 0z" />
</symbol>
<symbol id="icon-arrow-down" viewBox="0 0 1024 1024">
	<title>arrow-down</title>
	<path class="path1" d="M792.73 438.426c-20.838 21.402-240.384 230.554-240.384 230.554-11.162 11.418-25.754 17.101-40.346 17.101-14.643 0-29.235-5.683-40.346-17.101 0 0-219.546-209.152-240.435-230.554-20.838-21.402-22.272-59.853 0-82.739 22.323-22.835 53.402-24.627 80.691 0l200.090 191.898 200.038-191.846c27.341-24.627 58.47-22.835 80.691 0 22.323 22.835 20.941 61.338 0 82.688z" />
</symbol>
<symbol id="icon-arrow-up" viewBox="0 0 1024 1024">
	<title>arrow-up</title>
	<path class="path1" d="M792.73 585.574c-20.838-21.402-240.384-230.502-240.384-230.502-11.162-11.418-25.754-17.152-40.346-17.152-14.643 0-29.235 5.734-40.346 17.152 0 0-219.546 209.101-240.435 230.502-20.838 21.402-22.272 59.904 0 82.739 22.323 22.784 53.402 24.627 80.691 0l200.090-191.846 200.038 191.846c27.341 24.627 58.47 22.784 80.691 0 22.323-22.886 20.941-61.389 0-82.739z" />
</symbol>
<symbol id="icon-arrow-right" viewBox="0 0 1024 1024">
	<title>arrow-right</title>
	<path class="path1" d="M438.426 231.219c21.402 20.89 230.502 240.435 230.502 240.435 11.469 11.162 17.152 25.754 17.152 40.346s-5.683 29.184-17.152 40.346c0 0-209.101 219.546-230.502 240.384-21.402 20.89-59.853 22.323-82.739 0-22.835-22.272-24.627-53.35 0-80.64l191.898-200.090-191.846-200.090c-24.627-27.341-22.835-58.419 0-80.691s61.338-20.89 82.688 0z" />
</symbol>
<symbol id="icon-twitter" viewBox="0 0 1024 1024">
	<title>twitter</title>
	<path class="path1" d="M983.040 219.802c-34.714 15.411-71.936 25.754-111.053 30.464 39.936-23.91 70.605-61.798 84.992-106.906-37.325 22.118-78.694 38.246-122.675 46.899-35.277-37.581-85.504-61.030-141.107-61.030-106.752 0-193.28 86.528-193.28 193.229 0 15.155 1.69 29.901 5.018 44.032-160.614-8.038-303.053-84.992-398.336-201.933-16.691 28.518-26.266 61.747-26.266 97.178 0 67.072 34.15 126.208 86.016 160.87-31.693-1.024-61.491-9.677-87.552-24.166 0 0.819 0 1.587 0 2.406 0 93.645 66.662 171.725 155.034 189.542-16.179 4.403-33.28 6.758-50.944 6.758-12.442 0-24.525-1.178-36.352-3.43 24.576 76.8 96 132.659 180.531 134.195-66.15 51.866-149.453 82.739-240.026 82.739-15.616 0-30.976-0.922-46.080-2.714 85.504 54.835 187.085 86.835 296.294 86.835 355.482 0 549.888-294.502 549.888-549.939 0-8.346-0.154-16.691-0.563-24.986 37.786-27.238 70.502-61.286 96.461-100.045z" />
</symbol>
<symbol id="icon-facebook" viewBox="0 0 1024 1024">
	<title>facebook</title>
	<path class="path1" d="M768 211.405h-146.227c-17.306 0-36.608 22.733-36.608 53.197v105.574h182.835v150.528h-182.835v452.096h-172.646v-452.045h-156.518v-150.579h156.518v-88.576c0-127.027 88.166-230.4 209.203-230.4h146.278v160.205z" />
</symbol>
<symbol id="icon-linkedin" viewBox="0 0 1024 1024">
	<title>linkedin</title>
	<path class="path1" d="M259.891 156.16c0 54.426-40.192 98.509-106.291 98.509-62.208 0-102.4-44.083-102.4-98.509 0-55.706 41.523-98.509 105.011-98.509s102.4 42.803 103.68 98.509zM56.422 966.349v-633.856h197.018v633.856h-197.018zM371.354 534.682c0-79.053-2.611-145.152-5.222-202.189h171.11l9.114 88.166h3.891c25.907-41.523 89.446-102.4 195.738-102.4 129.587 0 226.816 86.835 226.816 273.51v374.63h-197.018v-351.283c0-81.664-28.57-137.421-99.84-137.421-54.426 0-86.784 37.581-101.069 73.882-5.222 12.954-6.502 31.078-6.502 49.254v365.568h-197.018v-431.718z" />
</symbol>
<symbol id="icon-instagram" viewBox="0 0 1024 1024">
	<title>instagram</title>
	<path class="path1" d="M778.24 512c0 147.046-119.245 266.24-266.24 266.24-147.046 0-266.24-119.194-266.24-266.24 0-17.51 1.741-34.611 5.018-51.2h-179.098v353.894c0 75.981 61.542 137.626 137.626 137.626h605.389c75.981 0 137.626-61.594 137.626-137.626v-353.894h-179.046c3.226 16.589 4.966 33.69 4.966 51.2zM814.694 71.68h-605.389c-76.032 0-137.626 61.645-137.626 137.626v149.094h222.925c48.179-68.096 127.59-112.64 217.395-112.64s169.216 44.544 217.395 112.64h222.925v-149.094c0-75.981-61.645-137.626-137.626-137.626zM882.022 241.664c0 13.568-11.059 24.576-24.576 24.576h-73.677c-13.517 0-24.576-11.059-24.576-24.576v-73.728c0-13.568 11.11-24.576 24.576-24.576h73.677c13.568 0 24.576 11.059 24.576 24.576v73.728zM675.84 512c0-90.522-73.37-163.84-163.84-163.84s-163.84 73.318-163.84 163.84 73.37 163.84 163.84 163.84 163.84-73.318 163.84-163.84z" />
</symbol>
</defs>
</svg>